<?xml version="1.0" standalone="no"?>
<!DOCTYPE svg PUBLIC "-//W3C//DTD SVG 20010904//EN"
 "http://www.w3.org/TR/2001/REC-SVG-20010904/DTD/svg10.dtd">
<svg version="1.0" xmlns="http://www.w3.org/2000/svg"
 width="512.000000pt" height="512.000000pt" viewBox="0 0 512.000000 512.000000"
 preserveAspectRatio="xMidYMid meet">

<g transform="translate(0.000000,512.000000) scale(0.100000,-0.100000)"
fill="#000000" stroke="none">
<path d="M2750 5018 c0 -147 8 -138 -131 -138 l-119 0 -2 -784 c-2 -431 -7
-788 -11 -793 -5 -4 -64 -9 -133 -11 l-124 -4 0 -109 0 -109 -175 0 -175 0 0
-125 0 -125 -187 -2 -188 -3 -3 -112 -3 -113 -139 0 -139 0 -3 -117 -3 -118
-252 0 c-138 0 -255 4 -260 8 -4 5 -10 58 -11 118 l-4 109 -118 0 c-138 0
-130 -9 -130 137 l0 92 -107 3 -108 3 -3 243 -2 242 -105 0 -105 0 0 -685 0
-685 135 0 135 0 0 -125 0 -125 115 0 114 0 3 -118 3 -117 128 -3 127 -3 0
-124 0 -125 125 0 125 0 0 -115 0 -114 98 -3 97 -3 3 -477 2 -478 240 0 240 0
0 105 0 104 -117 3 -118 3 -3 113 -3 112 121 0 120 0 0 130 0 130 110 0 110 0
0 125 0 126 153 -3 152 -3 3 -122 3 -123 124 0 125 0 0 -350 0 -350 225 0 226
0 -3 98 -3 97 -108 3 c-106 3 -108 3 -118 29 -12 32 -8 917 4 930 5 4 53 10
108 11 l99 4 0 101 c0 157 -9 147 131 147 l119 0 0 158 c0 86 3 167 6 179 6
21 12 23 128 25 l121 3 3 408 2 407 140 0 139 0 3 -118 3 -117 125 0 125 0 3
247 2 248 -247 2 -248 3 -3 237 -2 238 492 2 493 3 3 103 3 102 -376 0 -375 0
0 125 0 125 605 0 605 0 -2 533 -3 532 -122 3 -123 3 0 114 0 115 -955 0 -955
0 0 -92z m500 -373 l0 -135 -165 0 -165 0 0 135 0 135 165 0 165 0 0 -135z"/>
</g>
</svg>
